<?xml version="1.0" encoding="UTF-8" ?>
<svg version="1.1" width="11" height="11" xmlns="http://www.w3.org/2000/svg" shape-rendering="crispEdges">
<rect x="9" y="0" width="1" height="1" fill="#EEEEEE" />
<rect x="10" y="0" width="1" height="1" fill="#909090" />
<rect x="8" y="1" width="1" height="1" fill="#EEEEEE" />
<rect x="9" y="1" width="1" height="1" fill="#909090" />
<rect x="10" y="1" width="1" height="1" fill="#5E5E5E" />
<rect x="7" y="2" width="1" height="1" fill="#EEEEEE" />
<rect x="8" y="2" width="1" height="1" fill="#909090" />
<rect x="9" y="2" width="1" height="1" fill="#5E5E5E" />
<rect x="6" y="3" width="1" height="1" fill="#EEEEEE" />
<rect x="7" y="3" width="1" height="1" fill="#909090" />
<rect x="8" y="3" width="1" height="1" fill="#5E5E5E" />
<rect x="5" y="4" width="1" height="1" fill="#C3C3C3" />
<rect x="6" y="4" width="1" height="1" fill="#909090" />
<rect x="7" y="4" width="1" height="1" fill="#5E5E5E" />
<rect x="1" y="5" width="1" height="1" fill="#A3603D" />
<rect x="4" y="5" width="1" height="1" fill="#C3C3C3" />
<rect x="5" y="5" width="1" height="1" fill="#909090" />
<rect x="6" y="5" width="1" height="1" fill="#5E5E5E" />
<rect x="1" y="6" width="1" height="1" fill="#3C2418" />
<rect x="2" y="6" width="1" height="1" fill="#A3603D" />
<rect x="3" y="6" width="1" height="1" fill="#C3C3C3" />
<rect x="4" y="6" width="1" height="1" fill="#909090" />
<rect x="5" y="6" width="1" height="1" fill="#5E5E5E" />
<rect x="2" y="7" width="1" height="1" fill="#3C2418" />
<rect x="3" y="7" width="1" height="1" fill="#5C3019" />
<rect x="4" y="7" width="1" height="1" fill="#5E5E5E" />
<rect x="1" y="8" width="1" height="1" fill="#A3603D" />
<rect x="2" y="8" width="1" height="1" fill="#5C3019" />
<rect x="3" y="8" width="1" height="1" fill="#3C2418" />
<rect x="4" y="8" width="1" height="1" fill="#5C3019" />
<rect x="0" y="9" width="1" height="1" fill="#A3603D" />
<rect x="1" y="9" width="1" height="1" fill="#5C3019" />
<rect x="2" y="9" width="1" height="1" fill="#3C2418" />
<rect x="4" y="9" width="1" height="1" fill="#3C2418" />
<rect x="5" y="9" width="1" height="1" fill="#3C2418" />
<rect x="0" y="10" width="1" height="1" fill="#5C3019" />
<rect x="1" y="10" width="1" height="1" fill="#3C2418" />
</svg>